<?xml version="1.0" standalone="no"?><!DOCTYPE svg PUBLIC "-//W3C//DTD SVG 1.1//EN" "http://www.w3.org/Graphics/SVG/1.1/DTD/svg11.dtd"><svg t="1604908478653" class="icon" viewBox="0 0 1024 1024" version="1.1" xmlns="http://www.w3.org/2000/svg" p-id="2631" xmlns:xlink="http://www.w3.org/1999/xlink" width="200" height="200"><defs><style type="text/css"></style></defs><path d="M860.915 455.48c42.246-19.673 74.276-57.083 89.516-105.56 28.859-91.8-19.167-191.45-107.056-222.134-64.963-22.682-134.71-1.472-178.366 48.864-51.157-55.662-118.034-92.975-191.707-106.29-86.353-15.611-174.482 3.216-248.154 53.002-78.134 52.8-131.988 134.296-151.643 229.475-19.627 95.036-2.813 192.439 47.341 274.263 31.103 50.739 74.014 92.915 124.095 121.971a19.925 19.925 0 0 0 10.032 2.703 20.006 20.006 0 0 0 16.057-31.956c-2.113-2.839-4.274-5.38-6.363-7.835-3.683-4.332-7.161-8.421-8.06-11.64-24.186-86.644-29.279-176.46-14.337-252.904 17.423-89.146 59.86-157.055 126.135-201.842 66.116-44.68 133.645-60.353 201.688-46.993a222.345 222.345 0 0 0-52.908 13.034c-54.138 20.617-98.581 61.435-125.145 114.941-58.143 117.115-14.496 262.177 97.3 323.369 32.823 17.966 69.54 27.418 106.386 27.418 1.022 0 2.047-0.008 3.069-0.021a20.009 20.009 0 0 0 7.624-38.384 189.258 189.258 0 0 1-15.927-7.75c-54.978-30.093-75.121-79.412-82.337-115.484-9.975-49.868-1.777-104.912 23.086-154.99 22.189-44.692 48.175-74.765 79.539-91.436 43.8 68.379 68.34 143.961 72.955 224.773 3.83 67.035-5.923 137.949-28.985 210.773-36.547 115.407-95.524 199.511-105.06 212.668h-54.822c0.559-1.841 0.865-3.792 0.865-5.816 0-23.265-7.896-44.7-21.123-61.722h37.107c11.05 0 20.007-8.906 20.007-19.955s-8.957-19.954-20.007-19.954H163.584c-11.05 0-20.008 8.905-20.008 19.954s8.958 19.955 20.008 19.955h48.972c-13.226 17.021-21.122 38.458-21.122 61.722 0 2.023 0.306 3.975 0.865 5.816H83.553c-11.05 0-20.008 9.417-20.008 20.466s8.958 20.466 20.008 20.466h849.194c11.05 0 20.007-9.196 20.007-20.245 0-122.22-13.826-236.244-41.09-338.429-13.623-51.062-30.612-99.322-50.75-144.292z m-40.233-78.349c-33.476-57.1-66.987-97.124-92.296-122.99a124.85 124.85 0 0 1 5.316 1.711c52.487 18.325 86.402 68.917 88.54 124-0.523-0.903-1.033-1.822-1.56-2.72z m9.502-211.566c67.702 23.637 104.518 100.954 82.072 172.354-9.636 30.655-27.723 55.518-51.517 71.757 10.994-82.391-35.646-164.3-113.846-191.602-17.455-6.094-35.493-9.149-53.536-9.149-0.82 0-1.64 0.012-2.46 0.024-0.074-0.162-0.14-0.327-0.219-0.486 32.798-42.216 88.19-60.814 139.506-42.898zM345.999 212.44c-74.302 50.212-123.751 128.818-143.003 227.322-13.86 70.921-11.838 152.14 5.441 232.363-20.448-19.3-38.49-41.492-53.475-65.938-92.515-150.93-50.978-352.652 92.59-449.671 50.096-33.854 107.72-51.48 166.331-51.48 17.403 0 34.897 1.555 52.3 4.7 44.298 8.007 85.846 25.865 122.146 52.014-81.88-19.043-164.23-2.088-242.33 50.69z m149.4 130.504c-28.782 57.971-38.187 122.121-26.483 180.632 7.07 35.349 21.684 66.863 42.643 92.879a206.525 206.525 0 0 1-3.008-1.61c-93.198-51.014-129.386-172.346-80.67-270.473 22.072-44.458 58.845-78.316 103.544-95.34 17.613-6.706 35.856-10.583 54.175-11.643-35.782 21.046-65.637 56.078-90.201 105.555z m-263.95 568.755c0-33.165 26.544-60.148 59.169-60.148 2.765 0 5.398-0.56 7.793-1.574h90.343a19.942 19.942 0 0 0 7.794 1.574c32.626 0 59.167 26.983 59.167 60.148 0 2.023 0.306 3.975 0.865 5.816H230.583c0.56-1.842 0.866-3.793 0.866-5.816z m366.713 5.815c23.517-36.204 65.162-107.734 94.352-199.381 24.726-77.633 35.229-153.535 31.213-225.603-4.726-84.827-29.64-164.338-74.097-236.604a152.8 152.8 0 0 1 19.168-2.223c16.893 13.44 66.92 57.52 117.365 143.562 9.697 16.54 18.859 33.727 27.502 51.492a19.975 19.975 0 0 0 4.148 8.628c22.16 46.982 40.652 98 55.189 152.483 24.88 93.249 38.189 197.128 39.611 307.645h-314.45z" fill="" p-id="2632"></path></svg>