<?xml version="1.0" standalone="no"?><!DOCTYPE svg PUBLIC "-//W3C//DTD SVG 1.1//EN" "http://www.w3.org/Graphics/SVG/1.1/DTD/svg11.dtd"><svg t="1604909417297" class="icon" viewBox="0 0 1024 1024" version="1.1" xmlns="http://www.w3.org/2000/svg" p-id="6198" xmlns:xlink="http://www.w3.org/1999/xlink" width="200" height="200"><defs><style type="text/css"></style></defs><path d="M512 1024a512 512 0 1 1 512-512 512 512 0 0 1-512 512z m0-966.016718a454.016718 454.016718 0 1 0 453.95809 454.016718A453.95809 453.95809 0 0 0 512 58.04191z m262.243902 582.35383a30.193519 30.193519 0 0 1-40.160311 14.539792L493.53212 574.556281a30.076262 30.076262 0 0 1-17.295317-29.314096 27.789763 27.789763 0 0 1-0.703538-3.459064V209.654414a30.193519 30.193519 0 1 1 60.445665 0v315.712814l223.783809 74.809573a30.193519 30.193519 0 0 1 14.539792 40.218939z" p-id="6199"></path></svg>