<?xml version="1.0" standalone="no"?><!DOCTYPE svg PUBLIC "-//W3C//DTD SVG 1.1//EN" "http://www.w3.org/Graphics/SVG/1.1/DTD/svg11.dtd"><svg t="1604909355304" class="icon" viewBox="0 0 1024 1024" version="1.1" xmlns="http://www.w3.org/2000/svg" p-id="5443" xmlns:xlink="http://www.w3.org/1999/xlink" width="200" height="200"><defs><style type="text/css"></style></defs><path d="M380.16 343.04l-258.218667 37.546667-7.168 1.706666a42.666667 42.666667 0 0 0-16.469333 71.082667L285.013333 635.392l-44.117333 257.28-0.597333 6.826667a42.666667 42.666667 0 0 0 62.549333 38.144l230.912-121.514667 230.912 121.514667 6.314667 2.730666a42.666667 42.666667 0 0 0 55.637333-47.786666L782.506667 635.477333l186.88-182.016 4.864-5.546666a42.666667 42.666667 0 0 0-28.501334-67.242667l-258.304-37.546667-115.370666-233.898666a42.666667 42.666667 0 0 0-76.544 0L380.16 343.04z m153.6-118.698667l87.210667 176.64 4.352 7.082667a42.666667 42.666667 0 0 0 27.733333 16.213333l194.816 28.245334-140.970667 137.472-5.290666 6.4a42.666667 42.666667 0 0 0-6.912 31.402666l33.28 194.048-174.336-91.648-7.68-3.072a42.666667 42.666667 0 0 0-32 3.072L339.626667 821.845333l33.365333-194.048 0.597333-8.277333a42.666667 42.666667 0 0 0-12.8-29.525333L219.648 452.522667l194.816-28.16a42.666667 42.666667 0 0 0 32.170667-23.381334l87.04-176.64z" p-id="5444"></path></svg>