<?xml version="1.0" standalone="no"?><!DOCTYPE svg PUBLIC "-//W3C//DTD SVG 1.1//EN" "http://www.w3.org/Graphics/SVG/1.1/DTD/svg11.dtd"><svg t="1604908158740" class="icon" viewBox="0 0 1024 1024" version="1.1" xmlns="http://www.w3.org/2000/svg" p-id="846" xmlns:xlink="http://www.w3.org/1999/xlink" width="200" height="200"><defs><style type="text/css"></style></defs><path d="M198.18450489 103.23012267a135.14979555 135.14979555 0 0 1 113.36271644-68.85649067c79.80828445-1.98064355 110.33349689 71.41967645 111.26556445 69.32252445s91.92516267-36.58365155 149.13080889 66.40981333c23.53470578 56.50659555-2.67969422 125.01356089-8.97115022 130.72247467 20.03945245 27.72900978 34.02046578 89.01245155 0.34952533 147.38318222-52.77832533 78.87621689-148.78128355 60.00184889-148.78128356 60.00184888l-53.12785067 112.197632 1.74762667 364.55492267-88.77943467 0.93206756-3.02921955-363.38983823-62.79805155-116.74146133c-85.86672355 8.73813333-137.71298133-29.47663645-158.45148445-110.56651377a127.86801778 127.86801778 0 0 1 19.10738489-95.6534329 116.99777991 116.99777991 0 0 1-6.40796444-137.71298133c35.53507555-61.28344178 83.30353778-69.43903289 135.38281244-58.60374755z m498.53963378 310.14547911s-9.08765867-6.75748978-13.04894578 0.23301689c0.81555911 45.088768 28.66107733 65.47774578 64.77869511 74.91492978l105.55665067 2.79620266-0.34952534 26.09789156-51.84625778 0.11650844a26.51732195 26.51732195 0 0 0 32.97188978 25.74836622 6.09339165 6.09339165 0 0 1 3.61176178 4.31081245q-30.58346667 42.81685333-61.16693333 85.51719822h-223.57970489l-61.16693334 62.79805155 28.19504356 82.0219449-45.088768 44.040192-2.21366044 163.69436444 29.70965333 0.58254222 1.16508445-146.10158933 38.44778666-9.32067556 58.48723911 157.05338311 28.66107733-1.63111822-58.13771377-169.05375289 31.34077155-37.39921067 158.10195912-2.44667733 4.54382933 6.64098133-44.62273423 204.82184534 30.6417209 0.58254222 34.3699911-159.15053511 5.59240534 0.69905067 48.234496 157.86894222 32.505856-1.74762667-58.95327289-197.24879644-1.63111822-12.46640356 19.57341867-12.93243733 50.0986311-161.01467022 97.98360178-65.011712 0.81555912-20.62199467-103.57600712-1.048576v-25.63185778a72.99254045 72.99254045 0 0 0 50.68117334-32.73887289 10.03137707 10.03137707 0 0 0-12.93243734-12.11687822c-94.60485689 68.27394845-115.57637689-11.18481067-121.28529066-20.62199466a11.34792249 11.34792249 0 0 0-15.37911467 0.58254222c-3.37874489 4.194304-3.72827022 12.23338667 15.96165689 39.61287111a3.49525333 3.49525333 0 0 1-2.44667734 5.24288c-38.91382045 4.31081245-95.18739911-4.07779555-94.60485688-57.67168z m-426.18788978 110.10048a2.80785351 2.80785351 0 0 0-2.79620267 3.37874489l47.06941156 68.04093155a6.09339165 6.09339165 0 0 0 6.291456-0.11650844l40.54493867-66.99235556a3.8797312 3.8797312 0 0 0-2.67969423-5.35938844c-31.80680533 10.95179378-85.16767289 1.048576-88.42990933 1.048576z" p-id="847"></path></svg>