<?xml version="1.0" standalone="no"?><!DOCTYPE svg PUBLIC "-//W3C//DTD SVG 1.1//EN" "http://www.w3.org/Graphics/SVG/1.1/DTD/svg11.dtd"><svg t="1604908444756" class="icon" viewBox="0 0 1024 1024" version="1.1" xmlns="http://www.w3.org/2000/svg" p-id="1886" xmlns:xlink="http://www.w3.org/1999/xlink" width="200" height="200"><defs><style type="text/css"></style></defs><path d="M615.5264 216.7808a17.92 17.92 0 0 1 4.096 4.608c1.792 2.4576 3.1232 5.2224 3.5328 8.2944a20.5312 20.5312 0 0 1-4.352 15.36c-4.608 5.888-8.192 12.1856-11.776 18.432a258.4064 258.4064 0 0 0-24.0128 59.6992c-2.56 9.216-4.9664 18.4832-7.424 27.7504-9.4208 36.096-19.0464 71.68-28.672 107.52l-13.1072 49.5104c-5.8368 22.016-11.6736 43.8784-17.408 66.048a28.7744 28.7744 0 0 0-0.9216 10.2912c0.6656 6.1952 3.8912 11.008 9.3696 14.336a35.072 35.072 0 0 0 9.728 3.9936c21.3504 5.5808 42.6496 11.7248 64.1536 17.2032 13.824 3.6864 27.7504 7.2704 41.6768 10.752 13.9264 3.5328 27.8528 6.9632 41.6768 10.752 24.9856 6.5536 49.7664 13.9264 74.5472 20.8896 2.3552 0.7168 4.8128 1.3312 7.2704 2.048 1.792 0.4608 3.584 1.024 5.4272 1.4336a32.2048 32.2048 0 0 0 39.1168-23.1424c8.8064-31.9488 16.9984-63.8976 25.6-95.6416 10.8544-40.7552 22.528-81.3056 32.768-122.2656 5.2224-20.6848 10.752-41.6256 13.568-62.6176 0.512-3.6864 1.536-7.3728 1.792-11.1104v-0.1024a170.5472 170.5472 0 0 0-25.1392-101.888 144.1792 144.1792 0 0 0-68.864-57.7024 125.4912 125.4912 0 0 0-43.3664-9.1136 106.1376 106.1376 0 0 0-26.88 2.304c-3.072 0.7168-6.144 1.024-9.216 1.4336-2.3552 0.3072-4.7104 0.8704-6.9632 1.024a20.6336 20.6336 0 0 1-10.6496-1.7408 15.616 15.616 0 0 1-6.9632-6.656l-9.0112 2.2528a13.824 13.824 0 0 1-1.536 13.9776c-0.4608 0.5632-0.4096 1.2288-0.9216 1.792-4.7104 5.12-9.8816 9.728-15.7184 13.7216-5.8368 4.096-12.3392 7.6288-19.712 10.7008a8.192 8.192 0 0 1-7.5776-0.8192c-2.2528-1.6896-4.7104-3.328-6.7584-4.9152l-9.8304 0.1536 1.2288 0.7168c0.4096 0.256 0.8192 0.4096 1.2288 0.7168zM141.2096 406.272c-2.4064 17.92-0.3072 35.072 3.4304 51.9168 4.1984 18.7904 10.5472 37.1712 15.872 55.808 13.2608 46.4384 27.392 92.7232 41.1136 139.008l2.4576 8.2944c1.8944 6.4 3.7376 12.8512 5.7344 19.1488 2.4576 7.3728 5.376 11.9296 9.5232 14.08 4.096 2.1504 9.5232 1.8944 16.896-0.3584 20.8896-6.3488 41.5744-12.9024 62.464-19.2512 33.9968-10.24 68.1984-20.0704 102.4-30.1056l27.2384-8.192c7.5776-2.1504 12.288-4.9664 14.6432-9.216 2.304-4.3008 2.1504-9.9328-0.1024-17.5616-2.56-8.704-5.2224-17.4592-7.8848-26.2144l-3.584-11.9296c-6.144-20.5824-12.4928-41.1648-18.6368-61.8496-11.3664-38.4-22.6304-76.8-34.6112-115.0464a145.152 145.152 0 0 0-29.7984-52.3776c-1.1264-1.28-2.048-2.7136-3.1744-3.9424l-0.8192-0.7168a129.3824 129.3824 0 0 0-64.9216-36.864 117.8112 117.8112 0 0 0-31.9488-3.1744c-21.2992 1.1776-40.3456 9.216-57.5488 21.504-6.9632 4.9152-14.336 6.7584-21.9648 1.6384a21.3504 21.3504 0 0 1-8.0384-9.216c-0.2048-0.512-0.6144-0.8192-0.7168-1.28l-20.48 9.6256c3.8912 0 7.5776 1.024 10.4448 2.6624 3.584 2.304 6.144 5.5296 7.68 9.0112 0.6656 1.536 0.3584 3.1232 0.512 4.7616 0.3584 2.7136 1.0752 5.376 0 8.192-3.072 7.936-6.3488 15.7184-10.24 23.0912-0.7168 1.3312-1.9968 1.792-2.8672 2.8672-4.4544 5.4784-10.496 8.6016-17.8176 6.5536l-1.8432 9.216c1.9968 0.3072 3.8912 1.024 5.7344 1.9456 6.656 3.2256 11.776 10.0864 10.8544 17.92z" fill="#FFFFFF" p-id="1887"></path><path d="M629.6576 220.1088a8.192 8.192 0 0 0 7.5776 0.8192c7.3728-3.072 13.824-6.656 19.712-10.7008a94.208 94.208 0 0 0 15.7184-13.7216c0.512-0.512 0.512-1.2288 0.8704-1.792a13.824 13.824 0 0 0 1.5872-13.9264 22.0672 22.0672 0 0 0-3.6864-5.5808c-5.7344-6.2976-13.1072-10.8032-21.7088-5.6832-9.6256 5.5296-19.8656 10.8032-27.2384 18.8416-4.3008 4.6592-5.5296 14.7456-3.6864 21.248 0.6144 2.048 2.048 3.8912 4.096 5.5296s4.5056 3.2768 6.7584 4.9664z" fill="#000000" p-id="1888"></path><path d="M669.1328 701.7984l3.328-13.1072a8.0384 8.0384 0 0 0-5.7344-9.6256c-14.9504-4.096-29.0816-7.7824-43.8272-11.6736-2.9184-0.7168-5.4272 0.512-7.424 2.4576-0.9216 0.9216-2.048 1.7408-2.4064 3.072a401.7152 401.7152 0 0 1-2.2016 8.0896c-0.9216 3.2768-1.9456 6.656-2.7136 9.9328-5.632 20.7872-10.9056 41.5744-16.384 62.3616-4.352 16.6912-8.9088 33.28-13.1072 50.0224-0.768 2.9696-0.512 5.6832-0.512 8.448a30.0544 30.0544 0 0 0 23.2448 29.0304c14.7456 4.096 31.5392-6.144 36.0448-22.3232 4.9152-17.3056 9.5744-34.6624 14.336-52.0192 3.9424-14.3872 7.9872-28.7744 11.8784-43.1616 1.8944-7.168 3.6864-14.336 5.4784-21.504zM382.0544 834.4576c10.0352-2.048 16.384-10.24 16.384-23.1424-0.2048-1.4336-0.2048-4.5056-1.2288-7.5264-9.6256-32.2048-20.0704-64.1024-28.8768-96.6656-2.6624-10.0352-7.7824-9.216-14.7456-7.3728-2.1504 0.5632-4.2496 1.4336-6.3488 2.2016-3.1232 1.1264-6.2976 2.048-9.472 2.9696-1.7408 0.512-3.4816 1.28-5.2736 1.536-1.5872 0.256-1.9456 1.024-3.072 1.536-3.3792 1.28-4.9152 3.6352-4.6592 7.1168 0.0512 1.1264-0.512 1.792-0.0512 3.2256 10.4448 33.9968 20.48 68.4032 30.9248 102.4 3.4816 11.264 14.1312 16.1792 26.4192 13.7216z" fill="#FFFFFF" p-id="1889"></path><path d="M157.3888 344.576c1.0752-2.7648 0.3584-5.4272 0-8.1408-0.1536-1.6384 0.1536-3.2256-0.512-4.7616a20.1728 20.1728 0 0 0-7.68-9.0112 21.2992 21.2992 0 0 0-10.4448-2.6624c-5.3248 0-10.6496 1.8432-12.9024 5.5808-5.9392 9.3696-10.24 19.6096-14.9504 29.696-0.8192 1.5872-1.2288 3.4304-0.6144 5.12 2.4576 9.5744 8.192 14.6944 16.1792 16.7424 7.3216 2.048 13.312-1.024 17.8176-6.5536 0.8704-1.024 2.1504-1.536 2.8672-2.8672a209.92 209.92 0 0 0 10.24-23.1424z" fill="#000000" p-id="1890"></path><path d="M881.3568 216.1664c-28.672-39.0656-67.1744-62.464-115.5072-70.1952-24.576-4.096-48.128-2.048-71.68 4.7104-9.8304 2.8672-14.5408 11.8784-12.4928 21.504 0.6144 2.2016 1.2288 4.5056 2.4576 6.2976a15.6672 15.6672 0 0 0 6.9632 6.656c2.9696 1.4336 6.5536 2.048 10.6496 1.792 2.304-0.2048 4.608-0.768 6.912-1.0752 3.072-0.4608 6.1952-0.7168 9.216-1.4336 9.1136-2.048 18.0736-2.56 26.9312-2.304 14.7456 0.4096 29.2864 3.4816 43.3664 9.1136a144.1792 144.1792 0 0 1 68.864 57.7536c19.2 30.3616 27.4944 66.6624 25.088 101.888v0.0512c-0.2048 3.7376-1.28 7.3728-1.7408 11.1104-2.7648 20.992-8.3456 41.9328-13.568 62.6688-10.24 40.96-21.9136 81.4592-32.768 122.2656-8.6016 31.744-16.7936 63.6928-25.6 95.6416a32.3584 32.3584 0 0 1-39.1168 23.0912c-1.8432-0.4096-3.584-1.024-5.4272-1.4848l-7.2704-1.9456c-24.7808-6.9632-49.5616-14.336-74.5472-20.8896-13.824-3.7888-27.7504-7.2704-41.6768-10.752a2985.2672 2985.2672 0 0 1-41.6768-10.752c-21.504-5.5296-42.8032-11.6736-64.1024-17.2544a35.072 35.072 0 0 1-9.7792-3.9936 18.7392 18.7392 0 0 1-9.3696-14.336 28.7744 28.7744 0 0 1 0.9216-10.2912c5.7344-22.1696 11.5712-44.032 17.408-66.048l13.1072-49.5104c9.6256-35.84 19.2512-71.424 28.672-107.52 2.4576-9.216 4.864-18.5344 7.424-27.7504 5.8368-20.736 13.1584-40.9088 23.9616-59.6992 3.584-6.2464 7.168-12.544 11.8272-18.432a20.5312 20.5312 0 0 0 4.352-15.36 18.8416 18.8416 0 0 0-3.4816-8.3456 17.92 17.92 0 0 0-4.1472-4.5056c-0.4096-0.3584-0.8192-0.512-1.2288-0.768l-1.2288-0.7168c-8.6016-4.3008-18.6368-1.3824-25.3952 7.5776a348.416 348.416 0 0 0-16.1792 24.7808c-14.1312 23.552-21.504 49.5616-28.2624 75.9808-8.192 32-16.9984 63.744-25.6 95.4368-8.6016 31.5392-17.2032 62.9248-25.3952 94.4128-6.144 23.1936-11.4688 46.7456-17.2032 70.0928 0-3.6864-2.2528-7.9872-3.6864-12.7488-5.9392-19.8656-11.6736-39.7312-17.6128-59.5968-10.8544-36.6592-22.1184-73.3184-32.5632-110.1312-10.24-35.6864-26.2144-67.7888-52.8384-94.0032-56.32-55.296-135.168-63.8976-197.632-20.9408a33.024 33.024 0 0 0-11.6736 15.616 12.3904 12.3904 0 0 0 0.2048 8.6016c0.1024 0.4096 0.512 0.768 0.7168 1.1776 1.4848 3.584 4.4032 6.8608 8.0384 9.216 7.6288 5.12 15.0016 3.328 21.9648-1.5872 17.2032-12.288 36.2496-20.3264 57.5488-21.504a129.3824 129.3824 0 0 1 96.8704 40.0896l0.8192 0.6656c1.1264 1.2288 2.048 2.6624 3.1744 3.9424 13.312 15.0528 23.7056 32.8704 29.7984 52.3776 11.9808 38.1952 23.2448 76.6464 34.6112 115.0464 6.144 20.6848 12.4928 41.2672 18.6368 61.9008l3.584 11.8784c2.6624 8.704 5.3248 17.4592 7.8848 26.2144 2.2528 7.68 2.4064 13.312 0.1024 17.5104-2.304 4.3008-7.0656 7.168-14.6432 9.3184-9.0112 2.6112-18.2272 5.5296-27.2384 8.192-34.2016 9.984-68.4032 19.8656-102.4 30.1056-20.8896 6.2976-41.5744 12.9024-62.464 19.2512-7.3728 2.2528-12.8 2.4576-16.896 0.3072-4.1472-2.1504-7.0656-6.656-9.5232-14.08-2.048-6.2976-3.84-12.7488-5.7344-19.1488l-2.4576-8.2944c-13.7216-46.2336-27.8528-92.5184-41.1648-139.0592-5.3248-18.5856-11.6224-36.9664-15.8208-55.808a145.8688 145.8688 0 0 1-3.4304-51.8656c0.9216-7.8848-4.1472-14.7456-10.8544-17.9712a19.0976 19.0976 0 0 0-5.7344-1.8944h-0.4096a18.2784 18.2784 0 0 0-20.0704 16.1792c-1.2288 13.056-2.8672 26.7776-0.6144 39.5264 3.8912 23.0912 9.8304 45.8752 16.1792 68.1984 17.8176 62.0544 36.2496 123.904 54.8864 185.4976 9.0112 30.5152 40.5504 45.8752 70.8608 35.6352 10.24-3.4816 20.6848-6.144 32.1536-9.4208 4.096-1.024 8.3968 1.28 9.8304 5.5808l6.3488 20.8384c9.0112 28.928 16.9984 58.1632 26.8288 86.6816 11.264 32.5632 43.4176 44.8 72.9088 36.1984 35.6352-10.5984 48.3328-40.4992 41.984-71.8336-4.7104-23.552-13.5168-46.08-20.48-69.2224-3.6864-12.544-7.3728-24.7808-11.0592-37.6832a8.0384 8.0384 0 0 1 5.3248-9.8304c7.9872-2.6624 15.5648-5.12 23.3472-6.9632 22.7328-5.3248 41.7792-15.36 48.5376-39.7824a27.136 27.136 0 0 0 1.2288-6.144 8.0384 8.0384 0 0 1 13.5168-4.6592c7.9872 7.3216 17.6128 12.0832 28.2624 14.8992 14.9504 4.096 29.9008 8.8576 45.2608 11.9296 7.3728 1.6384 7.9872 4.4544 6.3488 10.3936-7.168 27.2384-14.5408 54.4768-21.504 81.7664-5.12 20.0704-11.264 40.0896-14.336 60.416-3.6864 26.2144 7.3728 47.7184 28.672 62.6176 20.6848 14.336 43.2128 16.9984 66.9696 6.7584 26.8288-11.8784 37.2736-34.816 43.8272-61.2352 9.8304-38.5024 20.2752-76.8 30.3104-115.0976 1.024-3.4304 4.096-6.144 7.5776-6.144 0.4096 0 1.024 0 1.6384 0.256 15.1552 3.84 30.3104 7.7824 45.2608 12.032 35.2256 10.6496 66.56-4.4544 77.824-39.7312 10.4448-32.3584 18.6368-65.536 27.4432-98.4576 10.0352-37.3248 19.8656-74.752 29.2864-112.2816 7.9872-31.0784 16.7936-62.2592 21.0944-93.7984 6.9632-52.224-7.168-100.7616-38.5024-143.36zM382.0544 834.56c-12.288 2.4576-22.9376-2.4576-26.4192-13.7216-10.4448-33.9968-20.48-68.4032-30.9248-102.4-0.4096-1.4848 0.1024-2.1504 0-3.2768-0.2048-3.4816 1.3312-5.8368 4.7104-7.168 1.1264-0.4096 1.4848-1.2288 3.072-1.4336 1.792-0.3072 3.5328-1.024 5.2736-1.536 3.1744-1.024 6.3488-1.8944 9.472-3.072 2.0992-0.7168 4.1984-1.536 6.3488-2.1504 6.9632-1.8432 12.0832-2.6624 14.7456 7.3728 8.8064 32.5632 19.2512 64.512 28.8768 96.6656 1.024 3.072 1.024 6.0928 1.2288 7.5264 0 12.9536-6.3488 21.1456-16.384 23.1936z m269.7216-68.096c-4.7616 17.408-9.4208 34.7648-14.336 52.0704-4.5056 16.1792-21.2992 26.4192-36.0448 22.3232a30.0544 30.0544 0 0 1-23.2448-29.0304c0-2.7648-0.256-5.5296 0.512-8.448 4.1984-16.7424 8.704-33.3824 13.1072-50.0224 5.4784-20.7872 10.752-41.5744 16.384-62.3616 0.768-3.2768 1.792-6.656 2.7136-9.9328l2.2016-8.0896c0.4096-1.3312 1.536-2.1504 2.4064-3.072 1.9968-1.8944 4.5056-3.1744 7.424-2.4576 14.7456 3.8912 28.8768 7.5776 43.8272 11.6736 4.096 1.024 6.7584 5.3248 5.7344 9.6256l-3.328 13.1072c-1.792 7.168-3.584 14.336-5.4784 21.504-3.8912 14.336-7.936 28.7744-11.8784 43.1616z" fill="#000000" p-id="1891"></path></svg>