<?xml version="1.0" standalone="no"?><!DOCTYPE svg PUBLIC "-//W3C//DTD SVG 1.1//EN" "http://www.w3.org/Graphics/SVG/1.1/DTD/svg11.dtd"><svg t="1604908507274" class="icon" viewBox="0 0 1126 1024" version="1.1" xmlns="http://www.w3.org/2000/svg" p-id="4691" xmlns:xlink="http://www.w3.org/1999/xlink" width="219.921875" height="200"><defs><style type="text/css"></style></defs><path d="M747.8272 1.1264a377.2416 377.2416 0 0 0-327.6288 187.0336 292.5056 292.5056 0 0 0-118.8864-26.0608C135.5264 160.4096 1.1264 293.888 0.256 460.9024c-0.1536 15.9744 1.1264 31.8464 3.3792 47.2576l0.7168 5.0176a231.168 231.168 0 0 0 227.84 192.1024H825.344a292.5568 292.5568 0 0 0 276.992-197.12 383.0784 383.0784 0 0 0 21.2992-126.2592C1123.7376 172.032 956.16 2.304 747.776 1.1264M301.6192 945.3568c-15.872 30.208-51.8144 40.96-80.4864 24.576-28.672-16.5888-39.0144-54.5792-23.3472-84.6848 15.872-30.1056 124.0576-107.52 124.0576-107.52s-4.5056 137.6256-20.224 167.6288m625.2544 0a60.8768 60.8768 0 0 1-83.2 24.576 62.976 62.976 0 0 1-24.064-84.6848c16.3328-30.1056 128.256-107.52 128.256-107.52s-4.608 137.6256-20.992 167.6288m-312.32 0c-15.872 30.208-51.7632 40.96-80.4864 24.576-28.672-16.7424-39.0144-54.5792-23.2448-84.6848 15.7696-30.1056 124.0576-107.52 124.0576-107.52s-4.4544 137.6256-20.2752 167.6288" fill="#3FA1F2" p-id="4692"></path></svg>